<svg width="126" height="42" viewBox="0 0 126 42" fill="none" xmlns="http://www.w3.org/2000/svg">
<g clip-path="url(#clip0_1060_2275)">
<path d="M36.8032 2.87134V20.0231C36.8032 29.4935 29.1243 37.1724 19.6539 37.1724C10.1835 37.1724 2.50208 29.4935 2.50208 20.0206C2.50208 10.5477 10.181 2.87134 19.6514 2.87134H36.8032Z" stroke="#1BA638" stroke-width="5.00417" stroke-miterlimit="10"/>
<path d="M3.28271 39.5042C4.37112 28.3224 11.1217 16.5226 28.9241 15.269C13.9591 17.9112 8.35194 29.9413 7.84402 41.6335C6.40282 40.8479 4.88155 40.1348 3.28271 39.5042Z" fill="#1BA638"/>
<path d="M53.9925 1.11987H62.3869V24.6445C62.3869 35.2483 57.3077 38.9464 49.1885 38.9464C47.1993 38.9464 44.6597 38.6161 43.0033 38.0632L43.9416 31.27C45.1 31.6553 46.5913 31.9331 48.2477 31.9331C51.7806 31.9331 53.99 30.3317 53.99 24.5894V1.11987H53.9925Z" fill="#B0ABAA"/>
<path d="M69.4003 1.67023C71.6097 1.22736 76.0259 0.842041 80.2794 0.842041C85.4162 0.842041 88.5613 1.33996 91.2686 2.94129C93.8632 4.32244 95.6872 6.86206 95.6872 10.2849C95.6872 13.7078 93.7556 16.5802 89.6122 18.1815V18.2916C93.8632 19.395 97.0108 22.6552 97.0108 27.4592C97.0108 30.8821 95.4646 33.5343 93.1451 35.3558C90.4404 37.5101 85.9116 38.7236 78.5104 38.7236C74.3695 38.7236 71.2769 38.4484 69.3978 38.1706V1.67023H69.4003ZM77.7398 15.8621H80.5021C84.9758 15.8621 87.2952 14.0405 87.2952 11.2782C87.2952 8.51594 85.1409 6.97215 81.3303 6.97215C79.4537 6.97215 78.4028 7.08224 77.7398 7.24738V15.8621ZM77.7398 32.3733C78.568 32.5385 79.5613 32.5385 80.9975 32.5385C84.8082 32.5385 88.176 31.0472 88.176 27.1264C88.176 23.2057 84.8082 21.8796 80.6097 21.8796H77.7373V32.3708L77.7398 32.3733Z" fill="#B0ABAA"/>
<path d="M102.808 1.11987H111.203V31.27H126.002V38.3384H102.808V1.11987Z" fill="#B0ABAA"/>
</g>
<defs>
<clipPath id="clip0_1060_2275">
<rect width="126" height="41.2619" fill="white" transform="translate(0 0.369141)"/>
</clipPath>
</defs>
</svg>
